<?xml version="1.0" encoding="UTF-8"?>
<!DOCTYPE svg PUBLIC "-//W3C//DTD SVG 1.1//EN" "http://www.w3.org/Graphics/SVG/1.1/DTD/svg11.dtd">
<!-- Creator: CorelDRAW -->
<svg xmlns="http://www.w3.org/2000/svg" xml:space="preserve" width="295.141mm" height="172.544mm" version="1.1" style="shape-rendering:geometricPrecision; text-rendering:geometricPrecision; image-rendering:optimizeQuality; fill-rule:evenodd; clip-rule:evenodd"
viewBox="0 0 7390.99 4320.88"
 xmlns:xlink="http://www.w3.org/1999/xlink"
 xmlns:xodm="http://www.corel.com/coreldraw/odm/2003">
 <defs>
  <style type="text/css">
   <![CDATA[
    .fil0 {fill:black}
   ]]>
  </style>
 </defs>
 <g id="Camada_x0020_1">
  <metadata id="CorelCorpID_0Corel-Layer"/>
  <path class="fil0" d="M7205.76 4320.88c107.27,-25.37 169.83,-91.87 185.23,-201.77l-0.68 -3912.38c-12.02,-125.7 -92.85,-187.97 -199.71,-206.74l-2943.56 0c-75.83,0.61 -127.06,27.7 -164.66,69.48l-316.99 282.88c-42.19,42.22 -79.12,53.49 -143.93,52.51l-1126.03 0c-99.94,-12.04 -178.77,13.27 -230.97,85.7l-503.84 502.52 -1563.32 32.89c-107.66,4.7 -180.56,56.58 -197.31,184.66l0 2906.19c9.84,116.01 71.29,182.32 179.03,204.05l7026.73 0z"/>
 </g>
</svg>
